<svg xmlns="http://www.w3.org/2000/svg" width="24" height="24" viewBox="0 0 24 24"><path fill="#currentColor" d="M2.98 13.86V3.72H6V2.21h2.58l.08-.19A3.72 3.72 0 0 1 11.01.1 3 3 0 0 1 12 .01c.6 0 .68 0 .99.09a3.7 3.7 0 0 1 2.3 1.86l.14.26H18v1.51h3.02V24H2.98Zm16.53 0V5.2l-.75.01h-.75v1.13L18 7.47H6V6.34l-.01-1.12-.75-.01h-.75v17.3H19.5Zm-3-9V3.72h-2.14l-.04-.14-.07-.29c-.05-.2-.1-.3-.23-.58a2.1 2.1 0 0 0-.57-.73 2.1 2.1 0 0 0-1.43-.5c-.7 0-1.2.2-1.64.67-.25.27-.4.57-.6 1.14l-.14.43H7.48V6h9.04Zm-4.66-.42c-.45-.08-.7-.53-.54-.98.17-.52.9-.64 1.27-.22.22.26.2.74-.04 1.01-.13.15-.44.24-.7.19Z"/></svg>
