<svg xmlns="http://www.w3.org/2000/svg" width="24" height="24" viewBox="0 0 24 24"><path d="M11.14 2.5c-.47 0-.54 0-.78.07-.8.22-1.55.83-1.86 1.53l-.06.15H6.39v1.2H4V21.5h14.28v-2.68a4.7 4.7 0 0 1-1.2.4v1.11H5.2V6.62h.59l.6.01v1.78h9.5v-.89l.01-.89h.6l.59-.01v2.8c.42.08.82.22 1.2.4V5.45h-2.4v-1.2h-2.03l-.1-.2a2.93 2.93 0 0 0-1.84-1.48 2.32 2.32 0 0 0-.78-.07zm.01 1.17c.46 0 .83.13 1.14.4a2.14 2.14 0 0 1 .63 1.04l.06.22.03.12h1.71v1.8H7.56v-1.8h1.71l.12-.35c.15-.45.27-.68.47-.9.35-.37.75-.53 1.3-.53zm-.05 1.2a.56.56 0 0 0-.5.37c-.13.36.07.71.42.78.2.03.44-.04.55-.15.19-.22.2-.6.03-.8a.58.58 0 0 0-.5-.2zm-.32 5.56c-5.19 0-5.19 7.78 0 7.78h1.16V17.1h-1.16c-3.7 0-3.7-5.54 0-5.54h1.17v-1.12h-1.17zm4.16 0v1.12h1.17c3.69 0 3.69 5.54 0 5.54h-1.17v1.12h1.17a3.9 3.9 0 1 0 0-7.78h-1.17zm-3.36 3.36v1.13h3.73v-1.13h-3.73z"/></svg>
