<svg xmlns="http://www.w3.org/2000/svg" width="24" height="24" viewBox="0 0 24 24"><path d="M11.14 2.5c-.47 0-.54 0-.78.07-.8.22-1.55.83-1.86 1.53l-.06.15H6.39v1.2H4V21.5h14.28v-2.9h-1.2v1.73H5.2V6.62h.59l.6.01v1.78h9.5v-.89l.01-.89h.6l.59-.01v5.98h1.2V5.45h-2.4v-1.2h-2.03l-.1-.21a2.93 2.93 0 0 0-1.84-1.47 2.4 2.4 0 0 0-.78-.07zm.01 1.17c.47 0 .83.13 1.14.4a2.14 2.14 0 0 1 .63 1.04l.06.22.03.12h1.71v1.8H7.56v-1.8h1.71l.12-.35c.15-.45.27-.68.47-.9.35-.37.75-.53 1.3-.53zm-.05 1.2a.56.56 0 0 0-.5.37c-.12.36.07.71.42.77.2.04.44-.03.55-.14.19-.22.2-.6.03-.8a.58.58 0 0 0-.5-.2zm-3.53 6.42v1.12h1.5v4.88h1.13V12.4h1.5v-1.1H7.57zm3.75 2.62v1.13h4.75V13.9h-4.75zm0 2.25v1.13H20v-1.13h-8.68z"/></svg>
